<svg width="28" height="28" viewBox="0 0 28 28" fill="none" xmlns="http://www.w3.org/2000/svg">
<g clip-path="url(#clip0_3_34)">
<path fill-rule="evenodd" clip-rule="evenodd" d="M14 28C21.732 28 28 21.732 28 14C28 6.26801 21.732 0 14 0C6.26801 0 0 6.26801 0 14C0 21.732 6.26801 28 14 28ZM21.2338 15.6117C21.0117 16.7545 19.2444 18.0051 17.2146 18.2475C16.1561 18.3738 15.114 18.4899 14.0027 18.4389C12.1854 18.3557 10.7513 18.0052 10.7513 18.0052C10.7513 18.1821 10.7622 18.3505 10.7841 18.5081C11.0203 20.3016 12.5625 20.409 14.0233 20.4591C15.4978 20.5096 16.8106 20.0956 16.8106 20.0956L16.8712 21.4286C16.8712 21.4286 15.8399 21.9824 14.0027 22.0842C12.9896 22.1399 11.7318 22.0587 10.2667 21.6709C7.08912 20.8299 6.54265 17.4428 6.45904 14.006C6.4403 13.2558 6.44383 12.537 6.44701 11.8892V11.8891L6.44701 11.8889C6.44816 11.6557 6.44926 11.4317 6.44926 11.2187C6.44926 7.70444 8.75182 6.67436 8.75182 6.67436C9.91282 6.14116 11.905 5.91693 13.9761 5.9H14.027C16.0981 5.91693 18.0916 6.14116 19.2525 6.67436C19.2525 6.67436 21.555 7.70444 21.555 11.2187C21.555 11.2187 21.5838 13.8116 21.2338 15.6117ZM18.839 11.4913V15.7465H17.1532V11.6164C17.1532 10.7458 16.7869 10.3039 16.0542 10.3039C15.244 10.3039 14.838 10.8281 14.838 11.8646V14.1253H13.1621V11.8646C13.1621 10.8281 12.756 10.3039 11.9458 10.3039C11.2131 10.3039 10.8468 10.7458 10.8468 11.6164V15.7465H9.16098V11.4913C9.16098 10.6217 9.38241 9.93059 9.82719 9.4193C10.2859 8.90801 10.8865 8.64591 11.6322 8.64591C12.4948 8.64591 13.1481 8.97749 13.5801 9.64073L14 10.3447L14.42 9.64073C14.8519 8.97749 15.5052 8.64591 16.3679 8.64591C17.1135 8.64591 17.7142 8.90801 18.1729 9.4193C18.6176 9.93059 18.839 10.6217 18.839 11.4913Z" fill="#D1CECC"/>
</g>
<defs>
<clipPath id="clip0_3_34">
<rect width="28" height="28" fill="white"/>
</clipPath>
</defs>
</svg>
