<svg width="28" height="28" viewBox="0 0 28 28" fill="none" xmlns="http://www.w3.org/2000/svg">
<g clip-path="url(#clip0_4_72)">
<path fill-rule="evenodd" clip-rule="evenodd" d="M14 28C21.732 28 28 21.732 28 14C28 6.26801 21.732 0 14 0C6.26801 0 0 6.26801 0 14C0 21.732 6.26801 28 14 28ZM10.469 9.39978C12.9924 9.39978 15.0378 11.4595 15.0378 14.0001C15.0378 16.5407 12.9922 18.6003 10.469 18.6003C7.94577 18.6003 5.90002 16.5407 5.90002 14.0001C5.90002 11.4595 7.94561 9.39978 10.469 9.39978ZM20.0498 14.0001C20.0498 11.608 19.027 9.66926 17.7653 9.66926C16.5036 9.66926 15.481 11.6087 15.481 14.0001C15.481 16.3915 16.5038 18.3309 17.7655 18.3309C19.0271 18.3309 20.0498 16.3915 20.0498 14.0001ZM21.2966 10.1203C21.7402 10.1203 22.1 11.8573 22.1 14.0001C22.1 16.1422 21.7404 17.8799 21.2966 17.8799C20.8528 17.8799 20.4933 16.1427 20.4933 14.0001C20.4933 11.8575 20.8529 10.1203 21.2966 10.1203Z" fill="#D1CECC"/>
</g>
<defs>
<clipPath id="clip0_4_72">
<rect width="28" height="28" fill="white"/>
</clipPath>
</defs>
</svg>
